<?xml version="1.0" standalone="no"?>
<!DOCTYPE svg PUBLIC "-//W3C//DTD SVG 1.1//EN" "http://www.w3.org/Graphics/SVG/1.1/DTD/svg11.dtd" >
<svg xmlns="http://www.w3.org/2000/svg">
<metadata>
This is a custom SVG webfont generated by Font Squirrel.
Copyright   : Copyright c 2009 by One by Four All rights reserved
Designer    : Brian Haines
Foundry     : One by Four
</metadata>
<defs>
<font id="webfontdE7rSA5k" horiz-adv-x="485" >
<font-face units-per-em="2048" ascent="1536" descent="-512" />
<missing-glyph horiz-adv-x="348" />
<glyph unicode=" "  horiz-adv-x="348" />
<glyph unicode="&#x09;" horiz-adv-x="348" />
<glyph unicode="&#xa0;" horiz-adv-x="348" />
<glyph unicode="!" horiz-adv-x="268" d="M102 31v106q0 12 9.5 21.5t23.5 9.5q12 0 21.5 -9t9.5 -22v-106q0 -12 -9.5 -21.5t-21.5 -9.5q-14 0 -23.5 9.5t-9.5 21.5zM102 266v1239q0 12 9.5 21.5t23.5 9.5q12 0 21.5 -9t9.5 -22v-1239q0 -31 -31 -30q-33 -1 -33 30z" />
<glyph unicode="&#x22;" horiz-adv-x="378" d="M102 1421v84q0 31 31 31q12 0 21.5 -9t9.5 -22v-84q0 -14 -9.5 -23t-21.5 -9q-31 -1 -31 32zM209 1421v84q0 12 9 21.5t22 9.5q31 0 30 -31v-84q0 -33 -30 -32q-12 0 -21.5 9t-9.5 23z" />
<glyph unicode="#" horiz-adv-x="432" d="M82 702q0 12 9 21.5t24 9.5h10v70h-10q-33 0 -33 31q0 12 9 21t24 9h10v10q0 31 30.5 31t30.5 -31v-10h70v10q0 31 30.5 31t30.5 -31v-10h11q31 0 30.5 -30.5t-30.5 -30.5h-11v-70h11q31 0 30 -31q0 -33 -30 -32h-11v-11q0 -12 -9 -21t-21.5 -9t-21.5 9t-9 21v11h-70v-11 q0 -12 -9 -21t-21 -9q-31 0 -31 30v11h-10q-33 -1 -33 32zM186 733h70v70h-70v-70z" />
<glyph unicode="$" horiz-adv-x="491" d="M104 223q0 12 9.5 21.5t23.5 9.5q12 0 21.5 -9t9.5 -22q0 -33 21.5 -54.5t54.5 -21.5q31 0 52 21.5t23 50.5l-213 1092q-2 2 -2 6q0 49 31 86t78 47v57q0 12 9 21.5t21.5 9.5t21.5 -9t9 -22v-57q47 -10 78 -47t31 -86q0 -33 -33 -33q-12 0 -21.5 9.5t-9.5 23.5 q0 31 -22.5 53.5t-53 22.5t-52 -21.5t-23.5 -52.5l213 -1090v-2q2 -2 2 -4q0 -49 -30.5 -87t-78.5 -48v-55q0 -12 -9 -21.5t-21.5 -9.5t-21.5 9t-9 22v55q-47 10 -78 48t-31 87z" />
<glyph unicode="%" horiz-adv-x="491" d="M102 1388.5q0 34.5 26 59.5t60.5 25t59 -25t24.5 -59.5t-24.5 -60t-59 -25.5t-60.5 25.5t-26 60zM104 35l215 1474q4 31 35 27q31 -8 27 -37l-215 -1472q-4 -27 -31 -27h-4q-31 4 -27 35zM166 1389q0 -25 22.5 -25t22.5 25q0 23 -22.5 23t-22.5 -23zM211 112.5 q0 34.5 25.5 60.5t60.5 26t59.5 -26t24.5 -60.5t-24.5 -59t-59.5 -24.5t-60.5 24.5t-25.5 59zM272 112.5q0 -22.5 25 -22.5q23 0 22.5 22.5t-22.5 22.5q-25 0 -25 -22.5z" />
<glyph unicode="&#x26;" horiz-adv-x="555" d="M102 139v744q0 66 52 106q-51 45 -52 109v301q0 57 41 97t98.5 40t97.5 -40t40 -97q0 -33 -31 -33q-12 0 -21.5 9t-9.5 24q0 31 -22.5 53.5t-52.5 22.5q-33 0 -54.5 -22.5t-21.5 -53.5v-301q0 -33 21.5 -55.5t54.5 -22.5h75v90q0 31 31 31t31 -31v-90h59q31 0 31 -31 q0 -12 -9 -21.5t-22 -9.5h-59v-927q0 -31 -31 -31h-106q-57 0 -98.5 41t-41.5 98zM166 139q0 -33 21.5 -54.5t54.5 -21.5h75v895h-75q-33 0 -54.5 -22.5t-21.5 -52.5v-744z" />
<glyph unicode="'" horiz-adv-x="266" d="M102 1421v84q0 12 9.5 21.5t21.5 9.5q31 0 31 -31v-84q0 -33 -31 -32q-12 0 -21.5 9t-9.5 23z" />
<glyph unicode="(" horiz-adv-x="368" d="M102 137v1260q0 57 40 98t98 41q14 0 23 -9t9 -22q0 -33 -32 -32q-31 0 -53.5 -21.5t-22.5 -54.5v-1260q0 -31 22.5 -53.5t53.5 -22.5q14 0 23 -9t9 -21.5t-9 -21.5t-23 -9q-57 0 -97.5 40t-40.5 97z" />
<glyph unicode=")" horiz-adv-x="389" d="M100 30.5q0 12.5 9.5 21.5t21.5 9q33 0 54.5 22.5t21.5 53.5v1260q0 33 -21.5 54.5t-54.5 21.5q-12 0 -21.5 9t-9.5 23q0 12 9.5 21.5t21.5 9.5q57 0 98 -41t41 -98v-1260q0 -57 -41 -97t-98 -40q-12 0 -21.5 9t-9.5 21.5z" />
<glyph unicode="*" horiz-adv-x="460" d="M111 1329q-16 27 12 41l45 27l-45 28q-29 14 -12 41q16 29 43 13l45 -27v53q0 12 9 21.5t21 9.5q14 0 23.5 -9t9.5 -22v-53l45 27q27 16 43 -13q14 -27 -12 -43l-45 -26l45 -27q27 -16 12 -41q-10 -16 -26 -16q-8 0 -17 4l-45 26v-53q0 -12 -9 -21t-24 -9q-12 0 -21 9 t-9 21v53l-45 -26q-12 -4 -17 -4q-16 0 -26 16z" />
<glyph unicode="+" d="M102 543q0 12 9.5 21t23.5 9h76v76q0 31 30.5 31t30.5 -31v-76h76q14 0 23.5 -9t9.5 -21q0 -31 -33 -31h-76v-78q0 -12 -9 -21.5t-21.5 -9.5t-21.5 9.5t-9 21.5v78h-76q-33 0 -33 31z" />
<glyph unicode="," horiz-adv-x="276" d="M92 51l62 86q20 25 45 6q25 -20 6 -45l-64 -84q-6 -8 -20 -12q-12 -4 -23 6q-24 18 -6 43z" />
<glyph unicode="-" d="M102 522q0 12 9.5 21.5t23.5 9.5h213q14 0 23.5 -9t9.5 -22q0 -31 -33 -30h-213q-33 -1 -33 30z" />
<glyph unicode="." horiz-adv-x="276" d="M102 31v106q0 12 9.5 21.5t21.5 9.5q14 0 23.5 -9t9.5 -22v-106q0 -12 -9.5 -21.5t-23.5 -9.5q-12 0 -21.5 9.5t-9.5 21.5z" />
<glyph unicode="/" horiz-adv-x="481" d="M104 35l215 1474q4 31 35 27q31 -8 27 -37l-215 -1472q-4 -27 -31 -27h-4q-31 4 -27 35z" />
<glyph unicode="0" horiz-adv-x="483" d="M102 139v1258q0 57 41 98t98.5 41t97.5 -41t40 -98v-1258q0 -57 -40 -98t-97.5 -41t-98.5 41t-41 98zM164 139q0 -33 22.5 -55.5t55.5 -22.5q31 0 53 22.5t22 55.5v1258q0 33 -22.5 55.5t-52.5 22.5q-33 0 -55.5 -22.5t-22.5 -55.5v-1258z" />
<glyph unicode="1" horiz-adv-x="382" d="M112.5 1374.5q-22.5 22.5 0.5 42.5l108 109q12 12 33 6q18 -6 18 -29v-1474q0 -31 -30 -31q-12 0 -21.5 9t-9.5 22v1398l-53 -53q-23 -22 -45.5 0.5z" />
<glyph unicode="2" d="M104 37l215 1364q-2 31 -23.5 52.5t-51.5 21.5q-33 0 -54.5 -22.5t-21.5 -55.5q0 -12 -9 -21.5t-24 -9.5q-12 0 -21.5 9t-9.5 22q0 57 40 98t100 41q57 0 97 -41t40 -98v-4l-209 -1332h72q31 0 53 22.5t22 55.5q0 12 9.5 21.5t21.5 9.5t21.5 -9t9.5 -22q0 -57 -40 -98 t-97 -41h-109q-12 0 -22 10q-9 11 -9 27z" />
<glyph unicode="3" d="M104 139q0 12 9.5 21.5t21.5 9.5q31 0 31 -31q0 -33 22.5 -55.5t53.5 -22.5q33 0 55 22.5t22 55.5v682q0 33 -22.5 54.5t-54.5 21.5q-12 0 -21.5 9t-9.5 24q0 12 9 21.5t22 9.5q33 0 55 22.5t22 52.5v361q0 33 -22.5 55.5t-54.5 22.5q-31 0 -53.5 -22.5t-22.5 -55.5 q0 -31 -31 -31q-12 0 -21.5 9t-9.5 22q0 57 40 98t97.5 41t98.5 -41t41 -98v-361q0 -66 -51 -106q51 -45 51 -109v-682q0 -57 -41 -98t-98.5 -41t-97.5 41t-40 98z" />
<glyph unicode="4" horiz-adv-x="487" d="M104 778l215 738q8 27 35 22.5t27 -31.5v-1474q0 -12 -9.5 -21.5t-23.5 -9.5q-12 0 -21.5 9t-9.5 22v706h-182q-16 0 -26 13q-7 14 -5 26zM176 801h141v487z" />
<glyph unicode="5" horiz-adv-x="487" d="M102 139q0 12 9.5 21.5t23.5 9.5q12 0 21.5 -9t9.5 -22q0 -33 22.5 -55.5t53.5 -22.5q33 0 54 22.5t21 55.5v523q0 31 -22.5 53t-52.5 22h-107q-14 0 -23.5 9.5t-9.5 21.5v737q0 12 9.5 21.5t23.5 9.5h213q14 0 23.5 -9t9.5 -22q0 -31 -33 -30h-182v-676h76q57 0 98 -40 t41 -97v-523q0 -57 -41 -98t-98.5 -41t-98.5 41t-41 98z" />
<glyph unicode="6" d="M102 139v1258q0 57 40 98t97.5 41t98.5 -41t41 -98q0 -12 -9.5 -21.5t-21.5 -9.5q-14 0 -23.5 9t-9.5 22q0 33 -21.5 55.5t-53.5 22.5q-31 0 -53.5 -22.5t-22.5 -55.5v-621q35 23 76 23q57 0 98 -40t41 -97v-523q0 -57 -41 -98t-98.5 -41t-97.5 41t-40 98zM164 139 q0 -33 22.5 -55.5t53.5 -22.5q33 0 54 22.5t21 55.5v523q0 31 -21.5 53t-53.5 22q-31 0 -53.5 -22.5t-22.5 -52.5v-523z" />
<glyph unicode="7" d="M104 35l209 1440h-178q-31 0 -31 30q0 12 9.5 21.5t21.5 9.5h215q12 0 23 -10q10 -14 8 -25l-215 -1474q-4 -27 -31 -27h-4q-31 4 -27 35z" />
<glyph unicode="8" horiz-adv-x="487" d="M102 139v523q0 66 52 106q-51 41 -52 106v523q0 57 40 98t98 41q59 0 99 -41t40 -98v-523q0 -66 -51 -106q51 -41 51 -106v-523q0 -57 -40 -98t-99 -41q-57 0 -97.5 41t-40.5 98zM164 139q0 -33 22.5 -55.5t53.5 -22.5q33 0 55 22.5t22 55.5v523q0 31 -22.5 53t-54.5 22 q-31 0 -53.5 -22.5t-22.5 -52.5v-523zM164 874q0 -31 22.5 -53t53.5 -22q33 0 55 22.5t22 52.5v523q0 33 -22.5 55.5t-54.5 22.5q-31 0 -53.5 -22.5t-22.5 -55.5v-523z" />
<glyph unicode="9" horiz-adv-x="487" d="M102 139q0 12 9.5 21.5t23.5 9.5q12 0 21.5 -9t9.5 -22q0 -33 21.5 -55.5t54.5 -22.5q31 0 53 22.5t22 55.5v621q-35 -23 -75 -23q-57 0 -98.5 40t-41.5 97v523q0 57 41 98t98.5 41t98.5 -41t41 -98v-1258q0 -57 -41 -98t-98.5 -41t-98.5 41t-41 98zM166 874 q0 -31 21.5 -53t54.5 -22q31 0 53 22.5t22 52.5v523q0 33 -22.5 55.5t-52.5 22.5q-33 0 -54.5 -22.5t-21.5 -55.5v-523z" />
<glyph unicode=":" horiz-adv-x="266" d="M102 373v106q0 12 9.5 21.5t21.5 9.5q31 0 31 -31v-106q0 -31 -31 -31q-12 0 -21.5 9.5t-9.5 21.5zM102 647v107q0 12 9.5 21t21.5 9q31 0 31 -30v-107q0 -31 -31 -31q-12 0 -21.5 9.5t-9.5 21.5z" />
<glyph unicode=";" horiz-adv-x="378" d="M115 12q-20 20 0 43l73 76q23 23 45.5 0.5t-0.5 -45.5l-75 -74q-20 -23 -43 0zM178 293v106q0 12 9.5 21.5t21.5 9.5q31 0 31 -31v-106q0 -31 -31 -31q-12 0 -21.5 9.5t-9.5 21.5z" />
<glyph unicode="&#x3c;" horiz-adv-x="481" d="M104 752q-2 10 0 18l218 743q8 31 38 23q29 -10 23 -41l-215 -735l215 -719q8 -31 -23 -39q-2 -2 -8 -2q-25 0 -30 23z" />
<glyph unicode="=" d="M102 475q0 12 9.5 21.5t21.5 9.5h215q12 0 21.5 -9.5t9.5 -21.5q0 -14 -9.5 -23.5t-21.5 -9.5h-215q-12 0 -21.5 9.5t-9.5 23.5zM102 581.5q0 12.5 9.5 21.5t21.5 9h215q12 0 21.5 -9t9.5 -21.5t-9.5 -21.5t-21.5 -9h-215q-12 0 -21.5 9t-9.5 21.5z" />
<glyph unicode="&#x3e;" horiz-adv-x="481" d="M106 39l216 719l-216 735q-6 31 23 41q29 6 39 -23l215 -743q2 -10 0 -18l-215 -730q-6 -23 -31 -22q-6 0 -10 2q-29 6 -21 39z" />
<glyph unicode="?" horiz-adv-x="483" d="M102 1397q0 57 41 98t98.5 41t97.5 -41t40 -98v-4l-107 -629v-498q0 -31 -30.5 -30.5t-30.5 30.5v502v4l106 627q-2 31 -23.5 52.5t-51.5 21.5q-33 0 -54.5 -21.5t-21.5 -54.5q0 -12 -9.5 -21.5t-23.5 -9.5q-12 0 -21.5 9.5t-9.5 21.5zM211 31v106q0 31 31 31q12 0 21 -9 t9 -22v-106q0 -12 -9 -21.5t-21 -9.5q-31 0 -31 31z" />
<glyph unicode="@" horiz-adv-x="724" d="M102 137v897q0 57 41 98.5t99 41.5h123q57 0 98 -41t41 -99v-794q0 -59 -41 -99.5t-98.5 -40.5t-97.5 41t-40 99v497v25q0 57 40 98t98 41q39 0 77 -24v157q0 33 -22.5 54.5t-54.5 21.5h-123q-33 0 -55.5 -21.5t-22.5 -54.5v-897q0 -31 22.5 -53.5t55.5 -22.5h252 q25 0 45 17q20 23 20 69v543q0 14 9.5 23.5t21.5 9.5q33 0 33 -33v-543q0 -72 -41 -112q-35 -35 -88 -35h-252q-57 0 -98.5 40t-41.5 97zM289 240q0 -33 22.5 -55.5t53.5 -22.5q33 0 55 22.5t22 55.5v522q0 31 -22.5 53.5t-54.5 22.5q-31 0 -53.5 -22.5t-22.5 -53.5v-158 v-364z" />
<glyph unicode="A" horiz-adv-x="491" d="M102 29v1366q0 57 41 98t98.5 41t98.5 -41t41 -98v-142v-1224q0 -31 -33 -31q-31 0 -31 31v704h-151v-704q0 -31 -31 -31q-33 0 -33 31zM166 797h151v55v543q0 33 -21.5 54t-53.5 21q-31 0 -53.5 -21.5t-22.5 -53.5v-598z" />
<glyph unicode="B" horiz-adv-x="483" d="M102 139v1260q0 57 40 97t97.5 40t98.5 -40t41 -97v-178v-226v-121q0 -66 -51 -106q41 -33 49 -84q2 -4 2 -10v-12v-345v-178q0 -57 -40 -98t-99 -41q-57 0 -97.5 41t-40.5 98zM164 139q0 -33 22.5 -55.5t53.5 -22.5q33 0 55 22.5t22 55.5v178v345q0 31 -22.5 53 t-54.5 22h-76v-598zM164 799h76q33 0 55 22.5t22 52.5v121v226v178q0 31 -22.5 53.5t-54.5 22.5q-31 0 -53.5 -22.5t-22.5 -53.5v-600z" />
<glyph unicode="C" horiz-adv-x="489" d="M102 139v1260q0 57 41 97t98.5 40t97.5 -40t40 -97q0 -33 -31 -33q-12 0 -21.5 9t-9.5 24q0 31 -22.5 53.5t-52.5 22.5q-33 0 -54.5 -22.5t-21.5 -53.5v-1260q0 -33 21.5 -55.5t54.5 -22.5q31 0 53 22.5t22 55.5q0 12 9.5 21.5t21.5 9.5q31 0 31 -31q0 -57 -40 -98 t-97.5 -41t-98.5 41t-41 98z" />
<glyph unicode="D" horiz-adv-x="491" d="M104 31v1474q0 12 9.5 21.5t21.5 9.5h107q57 0 98 -40t41 -97v-1260q0 -57 -41 -98t-98 -41h-107q-12 0 -21.5 9.5t-9.5 21.5zM166 61h76q33 0 55 22.5t22 55.5v1260q0 31 -22.5 53.5t-54.5 22.5h-76v-1414z" />
<glyph unicode="E" horiz-adv-x="491" d="M102 139v1260q0 57 40 97t97.5 40t98.5 -40t41 -97q0 -14 -9.5 -23.5t-21.5 -9.5q-33 0 -33 33q0 31 -21.5 53.5t-53.5 22.5q-31 0 -53.5 -22.5t-22.5 -53.5v-600h184q12 0 21.5 -9.5t9.5 -21.5t-9.5 -21.5t-21.5 -9.5h-184v-598q0 -33 22.5 -55.5t53.5 -22.5 q33 0 54 22.5t21 55.5q0 12 9.5 21.5t23.5 9.5q12 0 21.5 -9t9.5 -22q0 -57 -40 -98t-99 -41q-57 0 -97.5 41t-40.5 98z" />
<glyph unicode="F" horiz-adv-x="452" d="M102 31v1474q0 12 9.5 21.5t21.5 9.5h217q12 0 21.5 -9t9.5 -22q0 -14 -9.5 -23t-21.5 -9h-186v-668h186q12 0 21.5 -9.5t9.5 -23.5q0 -12 -9.5 -21.5t-21.5 -9.5h-186v-710q0 -31 -31 -31q-12 0 -21.5 9.5t-9.5 21.5z" />
<glyph unicode="G" horiz-adv-x="481" d="M102 139v1260q0 57 41 97t98.5 40t97.5 -40t40 -97q0 -33 -31 -33q-12 0 -21.5 9t-9.5 24q0 31 -22.5 53.5t-52.5 22.5q-33 0 -54.5 -22.5t-21.5 -53.5v-1260q0 -33 21.5 -55.5t54.5 -22.5q31 0 53 22.5t22 55.5v398h-75q-12 0 -21.5 9t-9.5 21q0 31 31 31h106 q31 0 31 -31v-428q0 -57 -40 -98t-97.5 -41t-98.5 41t-41 98z" />
<glyph unicode="H" horiz-adv-x="481" d="M102 31v1474q0 31 31 31q12 0 21.5 -9t9.5 -22v-706h151v706q0 12 9.5 21.5t21.5 9.5q14 0 23.5 -9t9.5 -22v-1474q0 -12 -9.5 -21.5t-23.5 -9.5q-12 0 -21.5 9t-9.5 22v706h-151v-706q0 -12 -9.5 -21.5t-21.5 -9.5q-31 0 -31 31z" />
<glyph unicode="I" horiz-adv-x="266" d="M102 31v1474q0 12 9.5 21.5t21.5 9.5q14 0 23.5 -9t9.5 -22v-1474q0 -12 -9.5 -21.5t-23.5 -9.5q-12 0 -21.5 9.5t-9.5 21.5z" />
<glyph unicode="J" horiz-adv-x="491" d="M102 139q0 12 9.5 21.5t21.5 9.5q14 0 23.5 -9t9.5 -22q0 -33 21.5 -55.5t54.5 -22.5q31 0 53 22.5t22 55.5v1366q0 12 9.5 21.5t21.5 9.5q31 0 31 -31v-1366q0 -57 -40 -98t-97.5 -41t-98.5 41t-41 98z" />
<glyph unicode="K" d="M102 29v1474q0 12 9.5 21.5t23.5 9.5q12 0 21.5 -9t9.5 -22v-526l153 534q6 23 24 23q6 0 13 -2q24 -5 25 -25q0 -5 -2 -12l-172 -596l172 -864q2 -6 2 -11q0 -20 -27 -26h-6q-25 0 -31 25l-147 745l-4 -16v-723q0 -12 -9.5 -21.5t-21.5 -9.5q-14 0 -23.5 9.5t-9.5 21.5z " />
<glyph unicode="L" horiz-adv-x="430" d="M102 139v1366q0 12 9.5 21.5t21.5 9.5t21.5 -9t9.5 -22v-1366q0 -33 22.5 -55.5t53.5 -22.5h108q31 0 31 -30q0 -12 -9.5 -21.5t-21.5 -9.5h-108q-57 0 -97.5 41t-40.5 98z" />
<glyph unicode="M" horiz-adv-x="696" d="M102 31v1368q0 57 41 97t99 40q66 0 106 -51q45 51 109 51q57 0 97 -40t40 -97v-1368q0 -12 -9.5 -21.5t-21.5 -9.5t-21.5 9t-9.5 22v1351v17q0 31 -22.5 53.5t-52.5 22.5q-33 0 -55.5 -22.5t-22.5 -53.5v-1368q0 -31 -31 -31q-12 0 -21.5 9t-9.5 22v823v545 q0 31 -22.5 53.5t-52.5 22.5q-33 0 -54.5 -22.5t-21.5 -53.5v-1368q0 -12 -9.5 -21.5t-21.5 -9.5q-14 0 -23.5 9.5t-9.5 21.5z" />
<glyph unicode="N" horiz-adv-x="483" d="M102 31v1472q0 25 27 33q4 1 7 1q21 0 28 -24l153 -528v518q0 14 9.5 23.5t21.5 9.5q33 0 33 -33v-1472q0 -31 -33 -31q-31 0 -31 31v731l-151 524v-1255q0 -31 -31 -31q-33 0 -33 31z" />
<glyph unicode="O" horiz-adv-x="487" d="M102 137v1260q0 57 41 97t98.5 40t98.5 -40t41 -97v-1260q0 -57 -41 -98t-98.5 -41t-98.5 41t-41 98zM166 137q0 -33 21.5 -55.5t54.5 -22.5q31 0 53 22.5t22 55.5v1260q0 31 -22.5 53.5t-52.5 22.5q-33 0 -54.5 -23t-21.5 -53v-1260z" />
<glyph unicode="P" d="M102 33v844v290v234q0 57 41 97t98.5 40t98.5 -40t41 -97v-217v-307v-21q0 -10 -6 -16q-12 -43 -49 -72t-84 -29q-43 0 -76 23v-729q0 -12 -9.5 -21.5t-21.5 -9.5q-14 0 -23.5 9.5t-9.5 21.5zM166 877q0 -31 21.5 -53.5t54.5 -22.5q31 0 53 22.5t22 53.5v307v217 q0 31 -22.5 53.5t-52.5 22.5q-33 0 -54.5 -22.5t-21.5 -53.5v-234v-290z" />
<glyph unicode="Q" horiz-adv-x="489" d="M102 139v1260q0 57 41 97t98.5 40t98.5 -40t41 -97v-1260q0 -41 -23 -73l13 -13q11 -11 11 -22t-11 -21q-10 -10 -23 -10q-10 0 -20 10l-13 10q-37 -20 -73 -20q-57 0 -98.5 41t-41.5 98zM166 139q0 -33 22.5 -55.5t53.5 -22.5q14 0 26 7l-49 49q-23 23 0 43q23 23 45 0 l49 -47q4 16 4 26v1260q0 31 -21.5 53.5t-53.5 22.5q-31 0 -53.5 -22.5t-22.5 -53.5v-1260z" />
<glyph unicode="R" horiz-adv-x="481" d="M102 31v1368q0 57 41 97t98.5 40t97.5 -40t40 -97v-144v-401q0 -88 -78 -125q-4 -2 -14 -2l92 -692q4 -31 -27 -35h-4q-27 0 -31 27l-92 700h-61v-696q0 -31 -31 -31q-12 0 -21.5 9.5t-9.5 21.5zM164 788h115q39 23 38 66v401v144q0 31 -22.5 53.5t-52.5 22.5 q-33 0 -55.5 -22.5t-22.5 -53.5v-611z" />
<glyph unicode="S" horiz-adv-x="483" d="M102 139q0 12 9.5 21.5t21.5 9.5t21.5 -9t9.5 -22q0 -33 22.5 -55.5t53 -22.5t53 21.5t24.5 52.5l-215 1258v6q0 57 40 97t97.5 40t98.5 -40t41 -97q0 -14 -9.5 -23.5t-21.5 -9.5q-31 0 -31 33q0 31 -22.5 53.5t-54.5 22.5q-31 0 -52.5 -21.5t-23.5 -52.5l215 -1258v-4 q0 -57 -40 -98t-99 -41q-57 0 -97.5 41t-40.5 98z" />
<glyph unicode="T" horiz-adv-x="421" d="M41 1505.5q0 30.5 31 30.5h276q12 0 21.5 -9t9.5 -22q0 -31 -31 -30h-104v-1444q0 -12 -9.5 -21.5t-23.5 -9.5q-12 0 -21.5 9t-9.5 22v1444h-108q-31 0 -31 30.5z" />
<glyph unicode="U" d="M102 139v1366q0 12 9.5 21.5t21.5 9.5q14 0 23.5 -9t9.5 -22v-1366q0 -33 21.5 -55.5t54.5 -22.5q31 0 53 22.5t22 55.5v1366q0 12 9.5 21.5t21.5 9.5q31 0 31 -31v-1366q0 -57 -40 -98t-97.5 -41t-98.5 41t-41 98z" />
<glyph unicode="V" d="M104 1503q0 29 29 33h7q25 0 28 -29l76 -1046l75 1046q2 12 12 22q8 8 17 7h4q33 -4 29 -33l-107 -1474q-4 -29 -30 -29q-31 0 -31 29z" />
<glyph unicode="W" horiz-adv-x="696" d="M102 139v1366q0 12 9.5 21.5t21.5 9.5q31 0 31 -31v-1366q0 -33 22.5 -55.5t55.5 -22.5q31 0 53 22.5t22 55.5v1366q0 12 9.5 21.5t21.5 9.5t21.5 -9t9.5 -22v-1366q0 -33 22.5 -55.5t53.5 -22.5q33 0 54 22.5t21 55.5v1366q0 12 9.5 21.5t23.5 9.5q12 0 21.5 -9t9.5 -22 v-1366q0 -57 -41 -98t-98 -41q-66 0 -107 51q-41 -51 -106 -51q-57 0 -98.5 41t-41.5 98z" />
<glyph unicode="X" d="M102 35l107 733l-107 733q-4 31 27 35h7q24 0 28 -27l76 -524l77 524q4 27 28 27h7q31 -4 27 -35l-107 -733l107 -733q4 -31 -27 -35h-4q-27 0 -31 27l-77 526l-76 -526q-4 -27 -31 -27h-4q-31 4 -27 35z" />
<glyph unicode="Y" horiz-adv-x="452" d="M72 1499q-4 31 26 35h6q9 0 17 -5q10 -7 12 -20l76 -534l78 534q3 26 25 26q4 0 10 -1q31 -4 26 -35l-108 -745v-723q0 -31 -31 -31t-31 31v723z" />
<glyph unicode="Z" d="M102 35l209 1440h-178q-31 0 -31 30q0 12 9.5 21.5t21.5 9.5h215q12 0 23 -10q8 -10 8 -25l-209 -1440h178q31 0 31 -30q0 -12 -9.5 -21.5t-21.5 -9.5h-215q-16 0 -22 10q-11 15 -9 25z" />
<glyph unicode="[" horiz-adv-x="483" d="M102 31v1474q0 12 9.5 21.5t23.5 9.5h213q14 0 23.5 -9t9.5 -22q0 -33 -33 -32h-182v-1412h182q14 0 23.5 -9t9.5 -21.5t-9.5 -21.5t-23.5 -9h-213q-14 0 -23.5 9.5t-9.5 21.5z" />
<glyph unicode="\" horiz-adv-x="481" d="M106 1497q-6 29 25 37q29 4 37 -27l213 -1474q2 -12 -5 -22.5t-20 -12.5h-6q-27 0 -31 27z" />
<glyph unicode="]" horiz-adv-x="481" d="M102 30.5q0 12.5 9.5 21.5t21.5 9h184v1412h-184q-12 0 -21.5 9t-9.5 23q0 12 9.5 21.5t21.5 9.5h215q12 0 21.5 -9t9.5 -22v-1474q0 -12 -9.5 -21.5t-21.5 -9.5h-215q-12 0 -21.5 9t-9.5 21.5z" />
<glyph unicode="^" horiz-adv-x="483" d="M109 1171l106 342q8 23 31 23q20 0 28 -23l109 -342q6 -31 -21 -41h-10q-23 0 -28 21l-78 250l-78 -250q-10 -27 -39 -21q-30 12 -20 41z" />
<glyph unicode="_" horiz-adv-x="483" d="M102 33q0 12 9.5 21t21.5 9h215q12 0 21.5 -9t9.5 -21q0 -14 -9.5 -23.5t-21.5 -9.5h-215q-12 0 -21.5 9.5t-9.5 23.5z" />
<glyph unicode="`" horiz-adv-x="339" d="M113 1483q-20 25 6 43t43 -6l63 -86q18 -25 -6 -43q-10 -10 -22 -7q-14 4 -21 13z" />
<glyph unicode="a" d="M102 137v154q0 57 41 98t99 41q41 0 75 -22v251q0 33 -22.5 54.5t-52.5 21.5q-33 0 -54.5 -21.5t-21.5 -54.5q0 -12 -9.5 -21t-21.5 -9q-14 0 -23.5 9t-9.5 21q0 57 41 98.5t98.5 41.5t97.5 -41t40 -99v-522q0 -57 -40 -97t-97.5 -40t-98.5 40t-41 97zM166 137 q0 -31 21.5 -53.5t54.5 -22.5q31 0 53 22.5t22 53.5v154q0 33 -22.5 54.5t-52.5 21.5q-33 0 -54.5 -21.5t-21.5 -54.5v-154z" />
<glyph unicode="b" d="M102 137v1366q0 14 9.5 23.5t21.5 9.5q33 0 33 -33v-727q33 23 76 23q57 0 97 -41t40 -99v-522q0 -57 -40 -97t-97.5 -40t-98.5 40t-41 97zM166 137q0 -31 21.5 -53.5t54.5 -22.5q31 0 53 22.5t22 53.5v522q0 33 -22.5 54.5t-52.5 21.5q-33 0 -54.5 -21.5t-21.5 -54.5 v-522z" />
<glyph unicode="c" horiz-adv-x="483" d="M102 137v522q0 57 40 98.5t97.5 41.5t98.5 -41t41 -99q0 -12 -9.5 -21t-21.5 -9q-14 0 -23.5 9t-9.5 21q0 33 -21.5 54.5t-53.5 21.5q-31 0 -53.5 -21.5t-22.5 -54.5v-522q0 -31 22.5 -53.5t53.5 -22.5q33 0 54 22.5t21 53.5t33 31q31 0 31 -31q0 -57 -41 -97t-98.5 -40 t-97.5 40t-40 97z" />
<glyph unicode="d" d="M102 137v522q0 57 41 98.5t99 41.5q41 0 75 -23v727q0 14 9.5 23.5t21.5 9.5t21.5 -9t9.5 -24v-1366q0 -57 -40 -97t-97.5 -40t-98.5 40t-41 97zM164 137q0 -31 22.5 -53.5t55.5 -22.5q31 0 53 22.5t22 53.5v522q0 33 -22.5 54.5t-52.5 21.5q-33 0 -55.5 -21.5 t-22.5 -54.5v-522z" />
<glyph unicode="e" horiz-adv-x="483" d="M102 137v522q0 57 41 98.5t98.5 41.5t98.5 -41t41 -99v-260q0 -33 -33 -32h-182v-230q0 -31 21.5 -53.5t54.5 -22.5q31 0 53 22.5t22 53.5t31 31q33 0 33 -31q0 -57 -41 -97t-98.5 -40t-98.5 40t-41 97zM166 430h151v229q0 33 -22.5 54.5t-52.5 21.5q-33 0 -54.5 -21.5 t-21.5 -54.5v-229z" />
<glyph unicode="f" horiz-adv-x="430" d="M102 137v1260q0 57 40 98t97.5 41t98.5 -41t41 -98q0 -12 -9.5 -21.5t-23.5 -9.5q-12 0 -21.5 9t-9.5 22q0 31 -21.5 53.5t-53.5 22.5q-31 0 -53.5 -23t-22.5 -53v-598h182q33 0 33 -33q0 -12 -9.5 -21.5t-23.5 -9.5h-182v-598q0 -31 22.5 -53.5t53 -22.5t30.5 -30.5 t-30 -30.5q-57 0 -97.5 40t-40.5 97z" />
<glyph unicode="g" horiz-adv-x="481" d="M102 137v522q0 57 40 98.5t98 41.5q59 0 99 -41t40 -99v-452v-70v-368q0 -57 -41 -97.5t-98.5 -40.5t-97.5 40t-40 98v77q0 31 31 31q12 0 21.5 -9t9.5 -22v-77q0 -31 22.5 -53.5t53.5 -22.5q33 0 54 22.5t21 53.5v254q-33 -23 -75 -23q-57 0 -97.5 40t-40.5 97zM164 137 q0 -31 22.5 -53.5t53.5 -22.5q33 0 54 22.5t21 53.5v70v452q0 33 -21.5 54.5t-53.5 21.5q-31 0 -53.5 -21.5t-22.5 -54.5v-522z" />
<glyph unicode="h" d="M102 31v532v96v844q0 14 9.5 23.5t21.5 9.5q31 0 31 -33v-727q35 23 76 23q57 0 98 -41t41 -99v-628q0 -31 -31 -31t-31 31v628q0 33 -22.5 54.5t-54.5 21.5q-31 0 -53.5 -21.5t-22.5 -54.5v-96v-532q0 -31 -31 -31t-31 31z" />
<glyph unicode="i" horiz-adv-x="266" d="M102 31v737q0 12 9.5 21.5t21.5 9.5t21.5 -9.5t9.5 -21.5v-737q0 -31 -31 -31t-31 31zM102 926v106q0 12 9.5 21.5t21.5 9.5t21.5 -9.5t9.5 -21.5v-106q0 -12 -9.5 -21.5t-21.5 -9.5t-21.5 9.5t-9.5 21.5z" />
<glyph unicode="j" horiz-adv-x="378" d="M0 -154q0 12 9 21.5t22 9.5q14 0 23 -9t9 -22v-77q0 -31 21.5 -53.5t54.5 -22.5q31 0 53.5 22.5t22.5 53.5v999q0 12 9 21.5t22 9.5q31 0 30 -31v-999q0 -57 -39.5 -97.5t-97 -40.5t-98.5 40t-41 98v77zM215 926v106q0 12 9 21.5t22 9.5q31 0 30 -31v-106q0 -31 -30 -31 q-12 0 -21.5 9.5t-9.5 21.5z" />
<glyph unicode="k" horiz-adv-x="479" d="M102 31v1472q0 14 9.5 23.5t21.5 9.5q31 0 31 -33v-989l158 268q14 27 43 13q16 -12 15 -26q0 -8 -5 -17l-148 -254l150 -459q3 -8 3 -14q0 -18 -22 -25h-10q-20 0 -31 20l-131 406l-22 -35v-360q0 -31 -31 -31t-31 31z" />
<glyph unicode="l" horiz-adv-x="382" d="M102 137v1366q0 14 9.5 23.5t21.5 9.5q31 0 31 -33v-1366q0 -31 22.5 -53.5t55.5 -22.5q12 0 21 -9t9 -21q0 -31 -30 -31q-57 0 -98.5 40t-41.5 97z" />
<glyph unicode="m" horiz-adv-x="696" d="M102 31v628q0 57 40 98.5t98 41.5q63 0 108 -51q41 51 107 51q57 0 98 -41t41 -99v-628q0 -31 -31 -31q-33 0 -33 31v628q0 33 -21.5 54.5t-53.5 21.5q-31 0 -53.5 -21.5t-22.5 -54.5v-628q0 -31 -31 -31t-31 31v628q0 33 -22.5 54.5t-54.5 21.5q-31 0 -53.5 -21.5 t-22.5 -54.5v-628q0 -31 -31 -31t-31 31z" />
<glyph unicode="n" horiz-adv-x="483" d="M102 31v628q0 57 41 98.5t98.5 41.5t98.5 -41t41 -99v-628q0 -31 -33 -31q-31 0 -31 31v628q0 33 -22.5 54.5t-52.5 21.5q-33 0 -54.5 -21.5t-21.5 -54.5v-628q0 -31 -31 -31q-33 0 -33 31z" />
<glyph unicode="o" horiz-adv-x="481" d="M102 137v522q0 57 41 98.5t98.5 41.5t97.5 -41t40 -99v-522q0 -57 -40 -97t-97.5 -40t-98.5 40t-41 97zM164 137q0 -31 22.5 -53.5t55.5 -22.5q31 0 53 22.5t22 53.5v522q0 33 -22.5 54.5t-52.5 21.5q-33 0 -55.5 -21.5t-22.5 -54.5v-522z" />
<glyph unicode="p" horiz-adv-x="481" d="M102 -338v997q0 57 40 98.5t98 41.5q59 0 99 -41t40 -99v-522q0 -57 -41 -97t-98 -40q-41 0 -76 23v-361q0 -31 -31 -31q-12 0 -21.5 9.5t-9.5 21.5zM164 137q0 -31 22.5 -53.5t53.5 -22.5q33 0 55 22.5t22 53.5v522q0 33 -22.5 54.5t-54.5 21.5q-31 0 -53.5 -21.5 t-22.5 -54.5v-522z" />
<glyph unicode="q" horiz-adv-x="481" d="M102 137v522q0 57 41 98.5t98.5 41.5t97.5 -41t40 -99v-997q0 -12 -9.5 -21.5t-21.5 -9.5t-21.5 9.5t-9.5 21.5v361q-35 -23 -75 -23q-57 0 -98.5 40t-41.5 97zM164 137q0 -31 22.5 -53.5t55.5 -22.5q31 0 53 22.5t22 53.5v522q0 33 -22.5 54.5t-52.5 21.5 q-33 0 -55.5 -21.5t-22.5 -54.5v-522z" />
<glyph unicode="r" horiz-adv-x="450" d="M102 31v628q0 57 40 98.5t97.5 41.5t98.5 -41t41 -99q0 -12 -9.5 -21t-21.5 -9q-31 0 -31 30q0 33 -22.5 54.5t-54.5 21.5q-31 0 -53.5 -21.5t-22.5 -54.5v-628q0 -31 -31 -31t-31 31z" />
<glyph unicode="s" horiz-adv-x="483" d="M102 137q0 12 9.5 21.5t23.5 9.5q12 0 21.5 -9t9.5 -22q0 -31 21.5 -53.5t54.5 -22.5q31 0 52 20.5t23 49.5l-211 516q-4 8 -4 12q0 57 41 98.5t98.5 41.5t98.5 -41t41 -99q0 -12 -9.5 -21t-23.5 -9q-12 0 -21.5 9t-9.5 21q0 33 -22.5 54.5t-53 21.5t-52 -20.5 t-23.5 -48.5l211 -516q4 -8 4 -13q0 -57 -41 -97t-98.5 -40t-98.5 40t-41 97z" />
<glyph unicode="t" horiz-adv-x="413" d="M61 768q0 12 9.5 21.5t23.5 9.5h76v704q0 14 9 23.5t21.5 9.5t21.5 -9t9 -24v-704h76q31 0 31 -31q0 -33 -31 -33h-76v-76v-157v-365q0 -31 22.5 -53.5t53.5 -22.5q14 0 23.5 -9t9.5 -21q0 -31 -33 -31q-57 0 -97 40t-40 97v365v157v76h-76q-33 0 -33 33z" />
<glyph unicode="u" horiz-adv-x="481" d="M102 137v631q0 12 9.5 21.5t21.5 9.5t21.5 -9.5t9.5 -21.5v-631q0 -31 22.5 -53.5t53.5 -22.5q33 0 54 22.5t21 53.5v631q0 12 9.5 21.5t23.5 9.5q12 0 21.5 -9.5t9.5 -21.5v-631q0 -57 -41 -97t-98.5 -40t-97.5 40t-40 97z" />
<glyph unicode="v" horiz-adv-x="483" d="M104 762q-4 29 27 37h7q24 0 28 -27l76 -526l77 526q4 27 28 27h7q31 -8 27 -37l-107 -735q-6 -27 -32 -27q-25 0 -31 27z" />
<glyph unicode="w" horiz-adv-x="696" d="M102 137v631q0 12 9.5 21.5t21.5 9.5q31 0 31 -31v-631q0 -31 22.5 -53.5t55.5 -22.5q31 0 53 22.5t22 53.5v631q0 12 9.5 21.5t21.5 9.5t21.5 -9.5t9.5 -21.5v-631q0 -31 22.5 -53.5t53.5 -22.5q33 0 55 22.5t22 53.5v631q0 31 31 31q12 0 21.5 -9.5t9.5 -21.5v-631 q0 -57 -41 -97t-98 -40q-68 0 -107 49q-39 -49 -106 -49q-57 0 -98.5 40t-41.5 97z" />
<glyph unicode="x" horiz-adv-x="481" d="M109 39l104 360l-104 359q-2 5 -2 9q0 7 4 14q6 11 18 16q5 1 10 1q20 0 29 -22l78 -266l76 266q8 22 28 22q5 0 10 -1q12 -4 19 -16q4 -7 4 -14q0 -5 -2 -9l-105 -359l105 -360q2 -5 2 -10q0 -7 -4 -14q-6 -11 -19 -15h-8q-25 0 -30 20l-76 267l-78 -267q-6 -20 -31 -20 h-8q-12 4 -18 15q-4 7 -4 14q0 5 2 10z" />
<glyph unicode="y" horiz-adv-x="481" d="M102 137v631q0 31 31 31q12 0 21.5 -9.5t9.5 -21.5v-631q0 -31 22.5 -53.5t53.5 -22.5q33 0 54 22.5t21 53.5v154v477q0 12 9.5 21.5t23.5 9.5q12 0 21.5 -9.5t9.5 -21.5v-477v-154v-368q0 -57 -41 -97.5t-98.5 -40.5t-97.5 40t-40 98v77q0 31 31 31q12 0 21.5 -9 t9.5 -22v-77q0 -31 22.5 -53.5t53.5 -22.5q33 0 54 22.5t21 53.5v254q-33 -23 -75 -23q-57 0 -97.5 40t-40.5 97z" />
<glyph unicode="z" horiz-adv-x="483" d="M102 768q0 12 9.5 21.5t23.5 9.5h213q16 0 25 -13q7 -9 7 -19q0 -4 -1 -9l-203 -697h172q31 0 31 -30.5t-31 -30.5h-213q-16 0 -26 12q-8 10 -5 27l203 696h-172q-33 0 -33 33z" />
<glyph unicode="{" horiz-adv-x="481" d="M102 768q0 12 9.5 21.5t23.5 9.5q31 0 53.5 22.5t22.5 52.5v523q0 57 40 98t97 41q31 0 31 -31q0 -33 -31 -32.5t-53.5 -21t-22.5 -54.5v-523q0 -66 -51 -106l10 -10q41 -41 41 -99v-522q0 -31 22.5 -53.5t53.5 -22.5t31 -30.5t-31 -30.5q-57 0 -97 40t-40 97v522 q0 33 -22.5 54.5t-53.5 23.5q-33 0 -33 31z" />
<glyph unicode="|" horiz-adv-x="266" d="M102 -45v1620q0 31 31 31t31 -31v-1620q0 -31 -31 -31q-12 0 -21.5 9.5t-9.5 21.5z" />
<glyph unicode="}" horiz-adv-x="481" d="M102 30.5q0 12.5 9.5 21.5t21.5 9q33 0 55.5 22.5t22.5 53.5v522q0 66 49 109q-6 6 -10 8q-39 43 -39 98v523q0 33 -22.5 54.5t-55.5 21.5q-12 0 -21.5 9t-9.5 23q0 12 9.5 21.5t21.5 9.5q57 0 98 -41t41 -98v-523q0 -31 21.5 -53t54.5 -22q12 0 21.5 -9.5t9.5 -21.5 q0 -31 -31 -31t-53.5 -22.5t-22.5 -55.5v-522q0 -57 -41 -97t-98 -40q-12 0 -21.5 9t-9.5 21.5z" />
<glyph unicode="~" horiz-adv-x="778" d="M102 592q0 57 41 97t99 40q8 0 18 -6l285 -207q29 4 47 25.5t18 50.5q0 31 -22.5 53.5t-52.5 22.5q-12 0 -21.5 9t-9.5 21q0 31 31 31q57 0 98 -40t41 -97t-41 -98t-98 -41q-10 0 -19 6l-285 209q-29 -4 -48 -25.5t-19 -50.5q0 -33 22.5 -54.5t55.5 -21.5q12 0 21 -9 t9 -24q0 -12 -9 -21t-21 -9q-57 0 -98.5 41t-41.5 98z" />
<glyph unicode="&#xa2;" horiz-adv-x="481" d="M102 221v522q0 49 30 87t77 49v65q0 12 9 21.5t22 9.5q31 0 30 -31v-65q47 -10 78 -48t31 -88q0 -12 -9.5 -21t-23.5 -9q-12 0 -21.5 9t-9.5 21q0 31 -21.5 53.5t-53.5 22.5q-31 0 -53.5 -22.5t-22.5 -53.5v-522q0 -33 22.5 -54.5t53.5 -21.5q33 0 54 21.5t21 54.5 q0 12 9.5 21.5t21.5 9.5q14 0 23.5 -9.5t9.5 -21.5q0 -49 -31 -87t-78 -48v-55q0 -31 -30 -31q-12 0 -21.5 9t-9.5 22v55q-47 10 -77 48t-30 87z" />
<glyph unicode="&#xa3;" horiz-adv-x="542" d="M76 31q0 31 30 30q33 0 55.5 22.5t22.5 55.5v598h-78q-12 0 -21 9.5t-9 21.5t9 21.5t21 9.5h78v598q0 57 40 98t97.5 41t98.5 -41t41 -98q0 -12 -9.5 -21.5t-21.5 -9.5q-14 0 -23.5 9t-9.5 22q0 33 -21.5 55.5t-53.5 22.5q-31 0 -53.5 -22.5t-22.5 -55.5v-598h184 q12 0 21.5 -9.5t9.5 -21.5t-9.5 -21.5t-21.5 -9.5h-184v-598q0 -43 -23 -78h207q31 0 31 -30q0 -12 -9.5 -21.5t-21.5 -9.5h-324q-12 0 -21 9.5t-9 21.5z" />
<glyph unicode="&#xa5;" horiz-adv-x="452" d="M70 657q0 12 9 21.5t21 9.5h76v60h-76q-31 0 -30 30q0 12 9 21.5t21 9.5h70l-100 690q-4 31 26 35q12 2 22.5 -5t12.5 -20l78 -534l76 534q2 12 12 19.5t22 5.5q31 -4 27 -35l-98 -690h67q12 0 21.5 -9t9.5 -22q0 -31 -31 -30h-75v-60h75q12 0 21.5 -9t9.5 -22 q0 -31 -31 -30h-75v-596q0 -31 -31 -31q-33 0 -33 31v596h-76q-30 -1 -30 30z" />
<glyph unicode="&#xa9;" horiz-adv-x="1705" />
<glyph unicode="&#xad;" d="M102 522q0 12 9.5 21.5t23.5 9.5h213q14 0 23.5 -9t9.5 -22q0 -31 -33 -30h-213q-33 -1 -33 30z" />
<glyph unicode="&#x2000;" horiz-adv-x="802" />
<glyph unicode="&#x2001;" horiz-adv-x="1605" />
<glyph unicode="&#x2002;" horiz-adv-x="802" />
<glyph unicode="&#x2003;" horiz-adv-x="1605" />
<glyph unicode="&#x2004;" horiz-adv-x="534" />
<glyph unicode="&#x2005;" horiz-adv-x="401" />
<glyph unicode="&#x2006;" horiz-adv-x="266" />
<glyph unicode="&#x2007;" horiz-adv-x="266" />
<glyph unicode="&#x2008;" horiz-adv-x="200" />
<glyph unicode="&#x2009;" horiz-adv-x="319" />
<glyph unicode="&#x200a;" horiz-adv-x="88" />
<glyph unicode="&#x2010;" d="M102 522q0 12 9.5 21.5t23.5 9.5h213q14 0 23.5 -9t9.5 -22q0 -31 -33 -30h-213q-33 -1 -33 30z" />
<glyph unicode="&#x2011;" d="M102 522q0 12 9.5 21.5t23.5 9.5h213q14 0 23.5 -9t9.5 -22q0 -31 -33 -30h-213q-33 -1 -33 30z" />
<glyph unicode="&#x2012;" d="M102 522q0 12 9.5 21.5t23.5 9.5h213q14 0 23.5 -9t9.5 -22q0 -31 -33 -30h-213q-33 -1 -33 30z" />
<glyph unicode="&#x2013;" horiz-adv-x="1705" />
<glyph unicode="&#x2014;" horiz-adv-x="696" d="M102 768q0 12 9.5 21.5t23.5 9.5h428q12 0 21.5 -9.5t9.5 -21.5q0 -31 -31 -31h-428q-33 0 -33 31z" />
<glyph unicode="&#x2018;" horiz-adv-x="266" d="M102 1421v84q0 31 31 31q12 0 21.5 -9t9.5 -22v-84q0 -14 -9.5 -23t-21.5 -9q-31 -1 -31 32z" />
<glyph unicode="&#x2019;" horiz-adv-x="266" d="M102 1421v84q0 31 31 31q12 0 21.5 -9t9.5 -22v-84q0 -14 -9.5 -23t-21.5 -9q-31 -1 -31 32z" />
<glyph unicode="&#x201c;" horiz-adv-x="368" d="M102 1421v84q0 31 31 31q12 0 21.5 -9t9.5 -22v-84q0 -14 -9.5 -23t-21.5 -9q-31 -1 -31 32zM209 1421v84q0 12 9 21.5t22 9.5q31 0 30 -31v-84q0 -33 -30 -32q-12 0 -21.5 9t-9.5 23z" />
<glyph unicode="&#x201d;" horiz-adv-x="376" d="M102 1421v84q0 31 31 31q12 0 21.5 -9t9.5 -22v-84q0 -14 -9.5 -23t-21.5 -9q-31 -1 -31 32zM209 1421v84q0 12 9 21.5t22 9.5q31 0 30 -31v-84q0 -33 -30 -32q-12 0 -21.5 9t-9.5 23z" />
<glyph unicode="&#x2022;" horiz-adv-x="378" d="M102 768q0 35 25 59.5t59.5 24.5t60 -24.5t25.5 -59.5t-25.5 -60.5t-60 -25.5t-59.5 25.5t-25 60.5zM164 768q0 -25 22.5 -25t22.5 25q0 23 -22.5 23t-22.5 -23z" />
<glyph unicode="&#x2026;" horiz-adv-x="829" d="M102 31v106q0 12 9.5 21.5t21.5 9.5q14 0 23.5 -9t9.5 -22v-106q0 -12 -9.5 -21.5t-23.5 -9.5q-12 0 -21.5 9.5t-9.5 21.5zM379 31v106q0 12 9 21.5t22 9.5q14 0 23 -9t9 -22v-106q0 -12 -9 -21.5t-23 -9.5q-12 0 -21.5 9.5t-9.5 21.5zM655 31v106q0 12 9.5 21.5 t21.5 9.5q14 0 23.5 -9t9.5 -22v-106q0 -12 -9.5 -21.5t-23.5 -9.5q-12 0 -21.5 9.5t-9.5 21.5z" />
<glyph unicode="&#x202f;" horiz-adv-x="319" />
<glyph unicode="&#x205f;" horiz-adv-x="401" />
<glyph unicode="&#x20ac;" horiz-adv-x="573" d="M78 692q0 12 9 21.5t22 9.5h75v151h-75q-31 0 -31 31q0 12 9 21.5t22 9.5h75v461q0 57 41 98t98.5 41t98.5 -41t41 -98q0 -12 -9.5 -21.5t-23.5 -9.5q-12 0 -21.5 9t-9.5 22q0 33 -21.5 54.5t-53.5 21.5q-31 0 -53.5 -21.5t-22.5 -54.5v-461h182q14 0 23.5 -9t9.5 -22 q0 -31 -33 -31h-182v-151h182q14 0 23.5 -9t9.5 -22q0 -31 -33 -30h-182v-525q0 -31 22.5 -53.5t53.5 -22.5q33 0 54 22.5t21 53.5t31 31q33 0 33 -31q0 -57 -41 -97t-98.5 -40t-98.5 40t-41 97v525h-75q-31 -1 -31 30z" />
<glyph unicode="&#x2122;" horiz-adv-x="1118" d="M524 31v1368q0 57 41 97t99 40q66 0 106 -51q45 51 109 51q57 0 97 -40t40 -97v-1368q0 -12 -9.5 -21.5t-21.5 -9.5t-21.5 9t-9.5 22v1351v17q0 31 -22.5 53.5t-52.5 22.5q-33 0 -55.5 -22.5t-22.5 -53.5v-1368q0 -31 -31 -31q-12 0 -21.5 9t-9.5 22v823v545 q0 31 -22.5 53.5t-52.5 22.5q-33 0 -54.5 -22.5t-21.5 -53.5v-1368q0 -12 -9.5 -21.5t-21.5 -9.5q-14 0 -23.5 9.5t-9.5 21.5zM41 1505.5q0 30.5 31 30.5h276q12 0 21.5 -9t9.5 -22q0 -31 -31 -30h-104v-1444q0 -12 -9.5 -21.5t-23.5 -9.5q-12 0 -21.5 9t-9.5 22v1444h-108 q-31 0 -31 30.5z" />
<glyph unicode="&#xe000;" horiz-adv-x="800" d="M0 800h800v-800h-800v800z" />
<glyph unicode="&#xfb01;" horiz-adv-x="481" d="M102 137v1260q0 57 41 98t98.5 41t97.5 -41t40 -98q0 -12 -9.5 -21.5t-21.5 -9.5t-21.5 9t-9.5 22q0 31 -22.5 53.5t-52.5 22.5q-33 0 -55.5 -23t-22.5 -53v-598h184q12 0 21.5 -9.5t9.5 -21.5v-737q0 -31 -31 -31t-31 31v704h-153v-598q0 -31 22.5 -53.5t55.5 -22.5 q12 0 21 -9t9 -21q0 -31 -30 -31q-57 0 -98.5 40t-41.5 97z" />
<glyph unicode="&#xfb02;" horiz-adv-x="573" d="M102 139v1258q0 57 41 98t99 41h114q12 0 21.5 -9t9.5 -22v-1366q0 -33 22.5 -55.5t53.5 -22.5q33 0 33 -30q0 -12 -9.5 -21.5t-23.5 -9.5q-57 0 -97 41t-40 98v1336h-84q-33 0 -54.5 -22.5t-21.5 -55.5v-598h100q14 0 23.5 -9.5t9.5 -21.5t-9 -21.5t-24 -9.5h-100v-598 q0 -33 21.5 -55.5t54.5 -22.5q31 0 30 -30q0 -12 -9 -21.5t-21 -9.5q-57 0 -98.5 41t-41.5 98z" />
<glyph unicode="&#xfb03;" horiz-adv-x="1126" d="M962 31v737q0 12 9.5 21.5t21.5 9.5t21.5 -9.5t9.5 -21.5v-737q0 -31 -31 -31t-31 31zM962 926v106q0 12 9.5 21.5t21.5 9.5t21.5 -9.5t9.5 -21.5v-106q0 -12 -9.5 -21.5t-21.5 -9.5t-21.5 9.5t-9.5 21.5zM532 137v1260q0 57 40 98t97.5 41t98.5 -41t41 -98 q0 -12 -9.5 -21.5t-23.5 -9.5q-12 0 -21.5 9t-9.5 22q0 31 -21.5 53.5t-53.5 22.5q-31 0 -53.5 -23t-22.5 -53v-598h182q33 0 33 -33q0 -12 -9.5 -21.5t-23.5 -9.5h-182v-598q0 -31 22.5 -53.5t53 -22.5t30.5 -30.5t-30 -30.5q-57 0 -97.5 40t-40.5 97zM102 137v1260 q0 57 40 98t97.5 41t98.5 -41t41 -98q0 -12 -9.5 -21.5t-23.5 -9.5q-12 0 -21.5 9t-9.5 22q0 31 -21.5 53.5t-53.5 22.5q-31 0 -53.5 -23t-22.5 -53v-598h182q33 0 33 -33q0 -12 -9.5 -21.5t-23.5 -9.5h-182v-598q0 -31 22.5 -53.5t53 -22.5t30.5 -30.5t-30 -30.5 q-57 0 -97.5 40t-40.5 97z" />
<glyph unicode="&#xfb04;" horiz-adv-x="1243" d="M962 137v1366q0 14 9.5 23.5t21.5 9.5q31 0 31 -33v-1366q0 -31 22.5 -53.5t55.5 -22.5q12 0 21 -9t9 -21q0 -31 -30 -31q-57 0 -98.5 40t-41.5 97zM532 137v1260q0 57 40 98t97.5 41t98.5 -41t41 -98q0 -12 -9.5 -21.5t-23.5 -9.5q-12 0 -21.5 9t-9.5 22 q0 31 -21.5 53.5t-53.5 22.5q-31 0 -53.5 -23t-22.5 -53v-598h182q33 0 33 -33q0 -12 -9.5 -21.5t-23.5 -9.5h-182v-598q0 -31 22.5 -53.5t53 -22.5t30.5 -30.5t-30 -30.5q-57 0 -97.5 40t-40.5 97zM102 137v1260q0 57 40 98t97.5 41t98.5 -41t41 -98q0 -12 -9.5 -21.5 t-23.5 -9.5q-12 0 -21.5 9t-9.5 22q0 31 -21.5 53.5t-53.5 22.5q-31 0 -53.5 -23t-22.5 -53v-598h182q33 0 33 -33q0 -12 -9.5 -21.5t-23.5 -9.5h-182v-598q0 -31 22.5 -53.5t53 -22.5t30.5 -30.5t-30 -30.5q-57 0 -97.5 40t-40.5 97z" />
</font>
</defs>
</svg>
